<mxfile host="app.diagrams.net" modified="2023-07-25T01:58:50.452Z" agent="Mozilla/5.0 (Windows NT 10.0; Win64; x64) AppleWebKit/537.36 (KHTML, like Gecko) Chrome/115.0.0.0 Safari/537.36" etag="v49kGMUtGNKFXP_v2M-_" version="21.6.5" type="github">
  <diagram name="第 1 页" id="ahNr3ezhQ8ZlipIVa-oL">
    <mxGraphModel dx="2074" dy="1118" grid="1" gridSize="10" guides="1" tooltips="1" connect="1" arrows="1" fold="1" page="1" pageScale="1" pageWidth="827" pageHeight="1169" math="0" shadow="0">
      <root>
        <mxCell id="0" />
        <mxCell id="1" parent="0" />
        <mxCell id="q5i5TbiEr9sgHq6rellj-1" value="" style="rounded=0;whiteSpace=wrap;html=1;" vertex="1" parent="1">
          <mxGeometry x="80" y="540" width="640" height="60" as="geometry" />
        </mxCell>
        <mxCell id="q5i5TbiEr9sgHq6rellj-2" value="NTFS文件系统物理簇分配" style="text;html=1;strokeColor=none;fillColor=none;align=center;verticalAlign=middle;whiteSpace=wrap;rounded=0;" vertex="1" parent="1">
          <mxGeometry x="328.5" y="610" width="161.5" height="30" as="geometry" />
        </mxCell>
        <mxCell id="q5i5TbiEr9sgHq6rellj-4" value="" style="rounded=0;whiteSpace=wrap;html=1;fillColor=#000000;" vertex="1" parent="1">
          <mxGeometry x="80" y="540" width="20" height="60" as="geometry" />
        </mxCell>
        <mxCell id="q5i5TbiEr9sgHq6rellj-5" value="" style="rounded=0;whiteSpace=wrap;html=1;fillColor=#000000;strokeColor=#000000;" vertex="1" parent="1">
          <mxGeometry x="100" y="540" width="20" height="60" as="geometry" />
        </mxCell>
        <mxCell id="q5i5TbiEr9sgHq6rellj-6" value="" style="rounded=0;whiteSpace=wrap;html=1;" vertex="1" parent="1">
          <mxGeometry x="120" y="540" width="20" height="60" as="geometry" />
        </mxCell>
        <mxCell id="q5i5TbiEr9sgHq6rellj-7" value="" style="rounded=0;whiteSpace=wrap;html=1;fillColor=#000000;" vertex="1" parent="1">
          <mxGeometry x="140" y="540" width="20" height="60" as="geometry" />
        </mxCell>
        <mxCell id="q5i5TbiEr9sgHq6rellj-8" value="" style="rounded=0;whiteSpace=wrap;html=1;" vertex="1" parent="1">
          <mxGeometry x="160" y="540" width="20" height="60" as="geometry" />
        </mxCell>
        <mxCell id="q5i5TbiEr9sgHq6rellj-9" value="" style="rounded=0;whiteSpace=wrap;html=1;" vertex="1" parent="1">
          <mxGeometry x="180" y="540" width="20" height="60" as="geometry" />
        </mxCell>
        <mxCell id="q5i5TbiEr9sgHq6rellj-10" value="" style="rounded=0;whiteSpace=wrap;html=1;" vertex="1" parent="1">
          <mxGeometry x="200" y="540" width="20" height="60" as="geometry" />
        </mxCell>
        <mxCell id="q5i5TbiEr9sgHq6rellj-11" value="" style="rounded=0;whiteSpace=wrap;html=1;" vertex="1" parent="1">
          <mxGeometry x="220" y="540" width="20" height="60" as="geometry" />
        </mxCell>
        <mxCell id="q5i5TbiEr9sgHq6rellj-12" value="" style="rounded=0;whiteSpace=wrap;html=1;" vertex="1" parent="1">
          <mxGeometry x="240" y="540" width="20" height="60" as="geometry" />
        </mxCell>
        <mxCell id="q5i5TbiEr9sgHq6rellj-13" value="" style="rounded=0;whiteSpace=wrap;html=1;" vertex="1" parent="1">
          <mxGeometry x="260" y="540" width="20" height="60" as="geometry" />
        </mxCell>
        <mxCell id="q5i5TbiEr9sgHq6rellj-14" value="" style="rounded=0;whiteSpace=wrap;html=1;" vertex="1" parent="1">
          <mxGeometry x="280" y="540" width="20" height="60" as="geometry" />
        </mxCell>
        <mxCell id="q5i5TbiEr9sgHq6rellj-15" value="" style="rounded=0;whiteSpace=wrap;html=1;" vertex="1" parent="1">
          <mxGeometry x="300" y="540" width="20" height="60" as="geometry" />
        </mxCell>
        <mxCell id="q5i5TbiEr9sgHq6rellj-16" value="" style="rounded=0;whiteSpace=wrap;html=1;" vertex="1" parent="1">
          <mxGeometry x="320" y="540" width="20" height="60" as="geometry" />
        </mxCell>
        <mxCell id="q5i5TbiEr9sgHq6rellj-17" value="" style="rounded=0;whiteSpace=wrap;html=1;" vertex="1" parent="1">
          <mxGeometry x="340" y="540" width="20" height="60" as="geometry" />
        </mxCell>
        <mxCell id="q5i5TbiEr9sgHq6rellj-18" value="" style="rounded=0;whiteSpace=wrap;html=1;" vertex="1" parent="1">
          <mxGeometry x="360" y="540" width="20" height="60" as="geometry" />
        </mxCell>
        <mxCell id="q5i5TbiEr9sgHq6rellj-19" value="" style="rounded=0;whiteSpace=wrap;html=1;" vertex="1" parent="1">
          <mxGeometry x="380" y="540" width="20" height="60" as="geometry" />
        </mxCell>
        <mxCell id="q5i5TbiEr9sgHq6rellj-20" value="" style="rounded=0;whiteSpace=wrap;html=1;fillColor=#000000;" vertex="1" parent="1">
          <mxGeometry x="400" y="540" width="20" height="60" as="geometry" />
        </mxCell>
        <mxCell id="q5i5TbiEr9sgHq6rellj-21" value="" style="rounded=0;whiteSpace=wrap;html=1;" vertex="1" parent="1">
          <mxGeometry x="420" y="540" width="20" height="60" as="geometry" />
        </mxCell>
        <mxCell id="q5i5TbiEr9sgHq6rellj-22" value="" style="rounded=0;whiteSpace=wrap;html=1;" vertex="1" parent="1">
          <mxGeometry x="440" y="540" width="20" height="60" as="geometry" />
        </mxCell>
        <mxCell id="q5i5TbiEr9sgHq6rellj-23" value="" style="rounded=0;whiteSpace=wrap;html=1;" vertex="1" parent="1">
          <mxGeometry x="460" y="540" width="20" height="60" as="geometry" />
        </mxCell>
        <mxCell id="q5i5TbiEr9sgHq6rellj-24" value="" style="rounded=0;whiteSpace=wrap;html=1;" vertex="1" parent="1">
          <mxGeometry x="480" y="540" width="20" height="60" as="geometry" />
        </mxCell>
        <mxCell id="q5i5TbiEr9sgHq6rellj-25" value="" style="rounded=0;whiteSpace=wrap;html=1;" vertex="1" parent="1">
          <mxGeometry x="500" y="540" width="20" height="60" as="geometry" />
        </mxCell>
        <mxCell id="q5i5TbiEr9sgHq6rellj-26" value="" style="rounded=0;whiteSpace=wrap;html=1;" vertex="1" parent="1">
          <mxGeometry x="520" y="540" width="20" height="60" as="geometry" />
        </mxCell>
        <mxCell id="q5i5TbiEr9sgHq6rellj-27" value="" style="rounded=0;whiteSpace=wrap;html=1;" vertex="1" parent="1">
          <mxGeometry x="540" y="540" width="20" height="60" as="geometry" />
        </mxCell>
        <mxCell id="q5i5TbiEr9sgHq6rellj-28" value="" style="rounded=0;whiteSpace=wrap;html=1;" vertex="1" parent="1">
          <mxGeometry x="560" y="540" width="20" height="60" as="geometry" />
        </mxCell>
        <mxCell id="q5i5TbiEr9sgHq6rellj-29" value="" style="rounded=0;whiteSpace=wrap;html=1;" vertex="1" parent="1">
          <mxGeometry x="580" y="540" width="20" height="60" as="geometry" />
        </mxCell>
        <mxCell id="q5i5TbiEr9sgHq6rellj-30" value="" style="rounded=0;whiteSpace=wrap;html=1;" vertex="1" parent="1">
          <mxGeometry x="600" y="540" width="20" height="60" as="geometry" />
        </mxCell>
        <mxCell id="q5i5TbiEr9sgHq6rellj-31" value="" style="rounded=0;whiteSpace=wrap;html=1;" vertex="1" parent="1">
          <mxGeometry x="620" y="540" width="20" height="60" as="geometry" />
        </mxCell>
        <mxCell id="q5i5TbiEr9sgHq6rellj-32" value="" style="rounded=0;whiteSpace=wrap;html=1;" vertex="1" parent="1">
          <mxGeometry x="640" y="540" width="20" height="60" as="geometry" />
        </mxCell>
        <mxCell id="q5i5TbiEr9sgHq6rellj-33" value="" style="rounded=0;whiteSpace=wrap;html=1;" vertex="1" parent="1">
          <mxGeometry x="660" y="540" width="20" height="60" as="geometry" />
        </mxCell>
        <mxCell id="q5i5TbiEr9sgHq6rellj-34" value="" style="rounded=0;whiteSpace=wrap;html=1;" vertex="1" parent="1">
          <mxGeometry x="680" y="540" width="20" height="60" as="geometry" />
        </mxCell>
        <mxCell id="q5i5TbiEr9sgHq6rellj-35" value="" style="rounded=0;whiteSpace=wrap;html=1;" vertex="1" parent="1">
          <mxGeometry x="700" y="540" width="20" height="60" as="geometry" />
        </mxCell>
        <mxCell id="q5i5TbiEr9sgHq6rellj-36" value="" style="rounded=0;whiteSpace=wrap;html=1;fillColor=#000000;" vertex="1" parent="1">
          <mxGeometry x="350" y="390" width="20" height="60" as="geometry" />
        </mxCell>
        <mxCell id="q5i5TbiEr9sgHq6rellj-37" value="" style="rounded=0;whiteSpace=wrap;html=1;" vertex="1" parent="1">
          <mxGeometry x="370" y="390" width="20" height="60" as="geometry" />
        </mxCell>
        <mxCell id="q5i5TbiEr9sgHq6rellj-38" value="" style="rounded=0;whiteSpace=wrap;html=1;fillColor=#000000;" vertex="1" parent="1">
          <mxGeometry x="390" y="390" width="20" height="60" as="geometry" />
        </mxCell>
        <mxCell id="q5i5TbiEr9sgHq6rellj-39" value="" style="rounded=0;whiteSpace=wrap;html=1;" vertex="1" parent="1">
          <mxGeometry x="410" y="390" width="20" height="60" as="geometry" />
        </mxCell>
        <mxCell id="q5i5TbiEr9sgHq6rellj-40" value="" style="endArrow=none;html=1;rounded=0;exitX=0;exitY=0;exitDx=0;exitDy=0;" edge="1" parent="1" source="q5i5TbiEr9sgHq6rellj-4">
          <mxGeometry width="50" height="50" relative="1" as="geometry">
            <mxPoint x="390" y="600" as="sourcePoint" />
            <mxPoint x="350" y="450" as="targetPoint" />
          </mxGeometry>
        </mxCell>
        <mxCell id="q5i5TbiEr9sgHq6rellj-41" value="" style="endArrow=none;html=1;rounded=0;exitX=0;exitY=0;exitDx=0;exitDy=0;entryX=0;entryY=1;entryDx=0;entryDy=0;" edge="1" parent="1" source="q5i5TbiEr9sgHq6rellj-12" target="q5i5TbiEr9sgHq6rellj-37">
          <mxGeometry width="50" height="50" relative="1" as="geometry">
            <mxPoint x="240" y="550" as="sourcePoint" />
            <mxPoint x="350" y="460" as="targetPoint" />
          </mxGeometry>
        </mxCell>
        <mxCell id="q5i5TbiEr9sgHq6rellj-42" value="" style="endArrow=none;html=1;rounded=0;exitX=1;exitY=0;exitDx=0;exitDy=0;entryX=0;entryY=1;entryDx=0;entryDy=0;" edge="1" parent="1" source="q5i5TbiEr9sgHq6rellj-19" target="q5i5TbiEr9sgHq6rellj-38">
          <mxGeometry width="50" height="50" relative="1" as="geometry">
            <mxPoint x="390" y="600" as="sourcePoint" />
            <mxPoint x="440" y="550" as="targetPoint" />
          </mxGeometry>
        </mxCell>
        <mxCell id="q5i5TbiEr9sgHq6rellj-43" value="" style="endArrow=none;html=1;rounded=0;exitX=1;exitY=0;exitDx=0;exitDy=0;entryX=1;entryY=1;entryDx=0;entryDy=0;" edge="1" parent="1" source="q5i5TbiEr9sgHq6rellj-27" target="q5i5TbiEr9sgHq6rellj-38">
          <mxGeometry width="50" height="50" relative="1" as="geometry">
            <mxPoint x="390" y="600" as="sourcePoint" />
            <mxPoint x="440" y="550" as="targetPoint" />
          </mxGeometry>
        </mxCell>
        <mxCell id="q5i5TbiEr9sgHq6rellj-44" value="" style="endArrow=none;html=1;rounded=0;exitX=1;exitY=1;exitDx=0;exitDy=0;entryX=1;entryY=0;entryDx=0;entryDy=0;" edge="1" parent="1" source="q5i5TbiEr9sgHq6rellj-39" target="q5i5TbiEr9sgHq6rellj-35">
          <mxGeometry width="50" height="50" relative="1" as="geometry">
            <mxPoint x="390" y="600" as="sourcePoint" />
            <mxPoint x="440" y="550" as="targetPoint" />
          </mxGeometry>
        </mxCell>
        <mxCell id="q5i5TbiEr9sgHq6rellj-45" value="NTFS文件系统逻辑簇分配" style="text;html=1;strokeColor=none;fillColor=none;align=center;verticalAlign=middle;whiteSpace=wrap;rounded=0;" vertex="1" parent="1">
          <mxGeometry x="440" y="405" width="150" height="30" as="geometry" />
        </mxCell>
        <mxCell id="q5i5TbiEr9sgHq6rellj-46" value="" style="endArrow=none;html=1;rounded=0;exitX=0.5;exitY=0.833;exitDx=0;exitDy=0;exitPerimeter=0;" edge="1" parent="1" source="q5i5TbiEr9sgHq6rellj-7">
          <mxGeometry width="50" height="50" relative="1" as="geometry">
            <mxPoint x="390" y="600" as="sourcePoint" />
            <mxPoint x="180" y="670" as="targetPoint" />
          </mxGeometry>
        </mxCell>
        <mxCell id="q5i5TbiEr9sgHq6rellj-47" value="4KB" style="text;html=1;strokeColor=none;fillColor=none;align=center;verticalAlign=middle;whiteSpace=wrap;rounded=0;" vertex="1" parent="1">
          <mxGeometry x="170" y="660" width="60" height="30" as="geometry" />
        </mxCell>
        <mxCell id="q5i5TbiEr9sgHq6rellj-48" value="" style="endArrow=none;html=1;rounded=0;" edge="1" parent="1" source="q5i5TbiEr9sgHq6rellj-36">
          <mxGeometry width="50" height="50" relative="1" as="geometry">
            <mxPoint x="390" y="600" as="sourcePoint" />
            <mxPoint x="230" y="420" as="targetPoint" />
          </mxGeometry>
        </mxCell>
        <mxCell id="q5i5TbiEr9sgHq6rellj-49" value="32KB" style="text;html=1;strokeColor=none;fillColor=none;align=center;verticalAlign=middle;whiteSpace=wrap;rounded=0;" vertex="1" parent="1">
          <mxGeometry x="180" y="405" width="60" height="30" as="geometry" />
        </mxCell>
      </root>
    </mxGraphModel>
  </diagram>
</mxfile>
